<?xml version="1.0" encoding="utf-8" standalone="no"?>
<!DOCTYPE svg PUBLIC "-//W3C//DTD SVG 1.1//EN"
  "http://www.w3.org/Graphics/SVG/1.1/DTD/svg11.dtd">
<svg xmlns:xlink="http://www.w3.org/1999/xlink" width="451.44pt" height="336.669937pt" viewBox="0 0 451.44 336.669937" xmlns="http://www.w3.org/2000/svg" version="1.1">
 <metadata>
  <rdf:RDF xmlns:dc="http://purl.org/dc/elements/1.1/" xmlns:cc="http://creativecommons.org/ns#" xmlns:rdf="http://www.w3.org/1999/02/22-rdf-syntax-ns#">
   <cc:Work>
    <dc:type rdf:resource="http://purl.org/dc/dcmitype/StillImage"/>
    <dc:date>2025-10-20T12:12:33.642165</dc:date>
    <dc:format>image/svg+xml</dc:format>
    <dc:creator>
     <cc:Agent>
      <dc:title>Matplotlib v3.10.7, https://matplotlib.org/</dc:title>
     </cc:Agent>
    </dc:creator>
   </cc:Work>
  </rdf:RDF>
 </metadata>
 <defs>
  <style type="text/css">*{stroke-linejoin: round; stroke-linecap: butt}</style>
 </defs>
 <g id="figure_1">
  <g id="patch_1">
   <path d="M 0 336.669937 
L 451.44 336.669937 
L 451.44 0 
L 0 0 
z
" style="fill: #ffffff"/>
  </g>
  <g id="axes_1">
   <g id="LineCollection_1">
    <path d="M 119.221895 97.123854 
L 201.337341 98.787086 
" clip-path="url(#pf9a22c5443)" style="fill: none; stroke: #000000; stroke-width: 0.8"/>
    <path d="M 119.221895 97.123854 
L 63.584485 121.482655 
" clip-path="url(#pf9a22c5443)" style="fill: none; stroke: #000000; stroke-width: 0.8"/>
    <path d="M 201.337341 98.787086 
L 205.177585 141.434272 
" clip-path="url(#pf9a22c5443)" style="fill: none; stroke: #000000; stroke-width: 0.8"/>
    <path d="M 201.337341 98.787086 
L 245.283936 103.932608 
" clip-path="url(#pf9a22c5443)" style="fill: none; stroke: #000000; stroke-width: 0.8"/>
    <path d="M 201.337341 98.787086 
L 193.416716 63.661082 
" clip-path="url(#pf9a22c5443)" style="fill: none; stroke: #000000; stroke-width: 0.8"/>
    <path d="M 205.177585 141.434272 
L 157.19957 170.950184 
" clip-path="url(#pf9a22c5443)" style="fill: none; stroke: #000000; stroke-width: 0.8"/>
    <path d="M 205.177585 141.434272 
L 245.13977 159.317872 
" clip-path="url(#pf9a22c5443)" style="fill: none; stroke: #000000; stroke-width: 0.8"/>
    <path d="M 157.19957 170.950184 
L 115.215027 192.822397 
" clip-path="url(#pf9a22c5443)" style="fill: none; stroke: #000000; stroke-width: 0.8"/>
    <path d="M 157.19957 170.950184 
L 169.568553 151.648349 
" clip-path="url(#pf9a22c5443)" style="fill: none; stroke: #000000; stroke-width: 0.8"/>
    <path d="M 115.215027 192.822397 
L 99.778224 194.410484 
" clip-path="url(#pf9a22c5443)" style="fill: none; stroke: #000000; stroke-width: 0.8"/>
    <path d="M 115.215027 192.822397 
L 82.393816 201.913977 
" clip-path="url(#pf9a22c5443)" style="fill: none; stroke: #000000; stroke-width: 0.8"/>
    <path d="M 99.778224 194.410484 
L 88.398765 216.087273 
" clip-path="url(#pf9a22c5443)" style="fill: none; stroke: #000000; stroke-width: 0.8"/>
    <path d="M 99.778224 194.410484 
L 102.718828 161.529877 
" clip-path="url(#pf9a22c5443)" style="fill: none; stroke: #000000; stroke-width: 0.8"/>
    <path d="M 99.778224 194.410484 
L 64.237012 230.563082 
" clip-path="url(#pf9a22c5443)" style="fill: none; stroke: #000000; stroke-width: 0.8"/>
    <path d="M 88.398765 216.087273 
L 82.393816 201.913977 
" clip-path="url(#pf9a22c5443)" style="fill: none; stroke: #000000; stroke-width: 0.8"/>
    <path d="M 82.393816 201.913977 
L 45.124959 163.138062 
" clip-path="url(#pf9a22c5443)" style="fill: none; stroke: #000000; stroke-width: 0.8"/>
    <path d="M 45.124959 163.138062 
L 63.584485 121.482655 
" clip-path="url(#pf9a22c5443)" style="fill: none; stroke: #000000; stroke-width: 0.8"/>
    <path d="M 110.2918 140.844677 
L 102.718828 161.529877 
" clip-path="url(#pf9a22c5443)" style="fill: none; stroke: #000000; stroke-width: 0.8"/>
    <path d="M 110.2918 140.844677 
L 131.786409 141.456601 
" clip-path="url(#pf9a22c5443)" style="fill: none; stroke: #000000; stroke-width: 0.8"/>
    <path d="M 110.2918 140.844677 
L 83.218352 107.171975 
" clip-path="url(#pf9a22c5443)" style="fill: none; stroke: #000000; stroke-width: 0.8"/>
    <path d="M 102.718828 161.529877 
L 84.064244 137.227472 
" clip-path="url(#pf9a22c5443)" style="fill: none; stroke: #000000; stroke-width: 0.8"/>
    <path d="M 84.064244 137.227472 
L 131.786409 141.456601 
" clip-path="url(#pf9a22c5443)" style="fill: none; stroke: #000000; stroke-width: 0.8"/>
    <path d="M 131.786409 141.456601 
L 169.568553 151.648349 
" clip-path="url(#pf9a22c5443)" style="fill: none; stroke: #000000; stroke-width: 0.8"/>
    <path d="M 169.568553 151.648349 
L 228.77786 160.477216 
" clip-path="url(#pf9a22c5443)" style="fill: none; stroke: #000000; stroke-width: 0.8"/>
    <path d="M 228.77786 160.477216 
L 271.987254 160.744426 
" clip-path="url(#pf9a22c5443)" style="fill: none; stroke: #000000; stroke-width: 0.8"/>
    <path d="M 271.987254 160.744426 
L 273.363789 172.769805 
" clip-path="url(#pf9a22c5443)" style="fill: none; stroke: #000000; stroke-width: 0.8"/>
    <path d="M 271.987254 160.744426 
L 273.712965 225.529643 
" clip-path="url(#pf9a22c5443)" style="fill: none; stroke: #000000; stroke-width: 0.8"/>
    <path d="M 271.987254 160.744426 
L 308.926488 128.608013 
" clip-path="url(#pf9a22c5443)" style="fill: none; stroke: #000000; stroke-width: 0.8"/>
    <path d="M 271.987254 160.744426 
L 290.235081 137.303076 
" clip-path="url(#pf9a22c5443)" style="fill: none; stroke: #000000; stroke-width: 0.8"/>
    <path d="M 273.363789 172.769805 
L 245.13977 159.317872 
" clip-path="url(#pf9a22c5443)" style="fill: none; stroke: #000000; stroke-width: 0.8"/>
    <path d="M 273.363789 172.769805 
L 309.384214 177.909454 
" clip-path="url(#pf9a22c5443)" style="fill: none; stroke: #000000; stroke-width: 0.8"/>
    <path d="M 273.712965 225.529643 
L 267.41601 267.661506 
" clip-path="url(#pf9a22c5443)" style="fill: none; stroke: #000000; stroke-width: 0.8"/>
    <path d="M 273.712965 225.529643 
L 289.465848 252.823891 
" clip-path="url(#pf9a22c5443)" style="fill: none; stroke: #000000; stroke-width: 0.8"/>
    <path d="M 267.41601 267.661506 
L 268.309539 302.895392 
" clip-path="url(#pf9a22c5443)" style="fill: none; stroke: #000000; stroke-width: 0.8"/>
    <path d="M 308.926488 128.608013 
L 342.54649 102.529939 
" clip-path="url(#pf9a22c5443)" style="fill: none; stroke: #000000; stroke-width: 0.8"/>
    <path d="M 342.54649 102.529939 
L 333.53213 88.220479 
" clip-path="url(#pf9a22c5443)" style="fill: none; stroke: #000000; stroke-width: 0.8"/>
    <path d="M 342.54649 102.529939 
L 371.674722 87.669479 
" clip-path="url(#pf9a22c5443)" style="fill: none; stroke: #000000; stroke-width: 0.8"/>
    <path d="M 333.53213 88.220479 
L 290.235081 137.303076 
" clip-path="url(#pf9a22c5443)" style="fill: none; stroke: #000000; stroke-width: 0.8"/>
    <path d="M 333.53213 88.220479 
L 359.393062 49.804483 
" clip-path="url(#pf9a22c5443)" style="fill: none; stroke: #000000; stroke-width: 0.8"/>
    <path d="M 245.283936 103.932608 
L 317.46807 155.579215 
" clip-path="url(#pf9a22c5443)" style="fill: none; stroke: #000000; stroke-width: 0.8"/>
    <path d="M 245.283936 103.932608 
L 249.870977 62.261563 
" clip-path="url(#pf9a22c5443)" style="fill: none; stroke: #000000; stroke-width: 0.8"/>
    <path d="M 317.46807 155.579215 
L 309.384214 177.909454 
" clip-path="url(#pf9a22c5443)" style="fill: none; stroke: #000000; stroke-width: 0.8"/>
    <path d="M 317.46807 155.579215 
L 371.455963 186.63282 
" clip-path="url(#pf9a22c5443)" style="fill: none; stroke: #000000; stroke-width: 0.8"/>
    <path d="M 317.46807 155.579215 
L 381.790281 206.107826 
" clip-path="url(#pf9a22c5443)" style="fill: none; stroke: #000000; stroke-width: 0.8"/>
    <path d="M 371.455963 186.63282 
L 381.790281 206.107826 
" clip-path="url(#pf9a22c5443)" style="fill: none; stroke: #000000; stroke-width: 0.8"/>
    <path d="M 381.790281 206.107826 
L 406.315041 228.789461 
" clip-path="url(#pf9a22c5443)" style="fill: none; stroke: #000000; stroke-width: 0.8"/>
   </g>
   <g id="PathCollection_1">
    <path d="M 119.221895 104.194922 
C 121.097165 104.194922 122.89588 103.44987 124.221895 102.123854 
C 125.547911 100.797839 126.292963 98.999123 126.292963 97.123854 
C 126.292963 95.248585 125.547911 93.44987 124.221895 92.123854 
C 122.89588 90.797839 121.097165 90.052786 119.221895 90.052786 
C 117.346626 90.052786 115.547911 90.797839 114.221895 92.123854 
C 112.89588 93.44987 112.150828 95.248585 112.150828 97.123854 
C 112.150828 98.999123 112.89588 100.797839 114.221895 102.123854 
C 115.547911 103.44987 117.346626 104.194922 119.221895 104.194922 
z
" clip-path="url(#pf9a22c5443)" style="fill: #fde725; stroke: #fde725"/>
    <path d="M 201.337341 105.858154 
C 203.21261 105.858154 205.011326 105.113101 206.337341 103.787086 
C 207.663357 102.46107 208.408409 100.662355 208.408409 98.787086 
C 208.408409 96.911817 207.663357 95.113101 206.337341 93.787086 
C 205.011326 92.46107 203.21261 91.716018 201.337341 91.716018 
C 199.462072 91.716018 197.663357 92.46107 196.337341 93.787086 
C 195.011326 95.113101 194.266273 96.911817 194.266273 98.787086 
C 194.266273 100.662355 195.011326 102.46107 196.337341 103.787086 
C 197.663357 105.113101 199.462072 105.858154 201.337341 105.858154 
z
" clip-path="url(#pf9a22c5443)" style="fill: #fde725; stroke: #fde725"/>
    <path d="M 205.177585 148.505339 
C 207.052854 148.505339 208.851569 147.760287 210.177585 146.434272 
C 211.5036 145.108256 212.248653 143.309541 212.248653 141.434272 
C 212.248653 139.559002 211.5036 137.760287 210.177585 136.434272 
C 208.851569 135.108256 207.052854 134.363204 205.177585 134.363204 
C 203.302316 134.363204 201.5036 135.108256 200.177585 136.434272 
C 198.851569 137.760287 198.106517 139.559002 198.106517 141.434272 
C 198.106517 143.309541 198.851569 145.108256 200.177585 146.434272 
C 201.5036 147.760287 203.302316 148.505339 205.177585 148.505339 
z
" clip-path="url(#pf9a22c5443)" style="fill: #fde725; stroke: #fde725"/>
    <path d="M 157.19957 178.021252 
C 159.074839 178.021252 160.873554 177.2762 162.19957 175.950184 
C 163.525585 174.624169 164.270638 172.825454 164.270638 170.950184 
C 164.270638 169.074915 163.525585 167.2762 162.19957 165.950184 
C 160.873554 164.624169 159.074839 163.879117 157.19957 163.879117 
C 155.324301 163.879117 153.525585 164.624169 152.19957 165.950184 
C 150.873554 167.2762 150.128502 169.074915 150.128502 170.950184 
C 150.128502 172.825454 150.873554 174.624169 152.19957 175.950184 
C 153.525585 177.2762 155.324301 178.021252 157.19957 178.021252 
z
" clip-path="url(#pf9a22c5443)" style="fill: #fde725; stroke: #fde725"/>
    <path d="M 115.215027 199.893465 
C 117.090296 199.893465 118.889012 199.148413 120.215027 197.822397 
C 121.541043 196.496382 122.286095 194.697666 122.286095 192.822397 
C 122.286095 190.947128 121.541043 189.148413 120.215027 187.822397 
C 118.889012 186.496382 117.090296 185.751329 115.215027 185.751329 
C 113.339758 185.751329 111.541043 186.496382 110.215027 187.822397 
C 108.889012 189.148413 108.14396 190.947128 108.14396 192.822397 
C 108.14396 194.697666 108.889012 196.496382 110.215027 197.822397 
C 111.541043 199.148413 113.339758 199.893465 115.215027 199.893465 
z
" clip-path="url(#pf9a22c5443)" style="fill: #fde725; stroke: #fde725"/>
    <path d="M 99.778224 201.481552 
C 101.653493 201.481552 103.452208 200.7365 104.778224 199.410484 
C 106.104239 198.084469 106.849292 196.285754 106.849292 194.410484 
C 106.849292 192.535215 106.104239 190.7365 104.778224 189.410484 
C 103.452208 188.084469 101.653493 187.339417 99.778224 187.339417 
C 97.902955 187.339417 96.104239 188.084469 94.778224 189.410484 
C 93.452208 190.7365 92.707156 192.535215 92.707156 194.410484 
C 92.707156 196.285754 93.452208 198.084469 94.778224 199.410484 
C 96.104239 200.7365 97.902955 201.481552 99.778224 201.481552 
z
" clip-path="url(#pf9a22c5443)" style="fill: #fde725; stroke: #fde725"/>
    <path d="M 88.398765 223.158341 
C 90.274034 223.158341 92.07275 222.413289 93.398765 221.087273 
C 94.724781 219.761258 95.469833 217.962542 95.469833 216.087273 
C 95.469833 214.212004 94.724781 212.413289 93.398765 211.087273 
C 92.07275 209.761258 90.274034 209.016205 88.398765 209.016205 
C 86.523496 209.016205 84.724781 209.761258 83.398765 211.087273 
C 82.07275 212.413289 81.327698 214.212004 81.327698 216.087273 
C 81.327698 217.962542 82.07275 219.761258 83.398765 221.087273 
C 84.724781 222.413289 86.523496 223.158341 88.398765 223.158341 
z
" clip-path="url(#pf9a22c5443)" style="fill: #fde725; stroke: #fde725"/>
    <path d="M 82.393816 208.985045 
C 84.269085 208.985045 86.0678 208.239992 87.393816 206.913977 
C 88.719831 205.587961 89.464884 203.789246 89.464884 201.913977 
C 89.464884 200.038708 88.719831 198.239992 87.393816 196.913977 
C 86.0678 195.587961 84.269085 194.842909 82.393816 194.842909 
C 80.518547 194.842909 78.719831 195.587961 77.393816 196.913977 
C 76.0678 198.239992 75.322748 200.038708 75.322748 201.913977 
C 75.322748 203.789246 76.0678 205.587961 77.393816 206.913977 
C 78.719831 208.239992 80.518547 208.985045 82.393816 208.985045 
z
" clip-path="url(#pf9a22c5443)" style="fill: #fde725; stroke: #fde725"/>
    <path d="M 45.124959 170.20913 
C 47.000228 170.20913 48.798943 169.464078 50.124959 168.138062 
C 51.450974 166.812047 52.196026 165.013331 52.196026 163.138062 
C 52.196026 161.262793 51.450974 159.464078 50.124959 158.138062 
C 48.798943 156.812047 47.000228 156.066994 45.124959 156.066994 
C 43.24969 156.066994 41.450974 156.812047 40.124959 158.138062 
C 38.798943 159.464078 38.053891 161.262793 38.053891 163.138062 
C 38.053891 165.013331 38.798943 166.812047 40.124959 168.138062 
C 41.450974 169.464078 43.24969 170.20913 45.124959 170.20913 
z
" clip-path="url(#pf9a22c5443)" style="fill: #fde725; stroke: #fde725"/>
    <path d="M 110.2918 147.915745 
C 112.167069 147.915745 113.965784 147.170693 115.2918 145.844677 
C 116.617815 144.518662 117.362868 142.719946 117.362868 140.844677 
C 117.362868 138.969408 116.617815 137.170693 115.2918 135.844677 
C 113.965784 134.518662 112.167069 133.773609 110.2918 133.773609 
C 108.416531 133.773609 106.617815 134.518662 105.2918 135.844677 
C 103.965784 137.170693 103.220732 138.969408 103.220732 140.844677 
C 103.220732 142.719946 103.965784 144.518662 105.2918 145.844677 
C 106.617815 147.170693 108.416531 147.915745 110.2918 147.915745 
z
" clip-path="url(#pf9a22c5443)" style="fill: #fde725; stroke: #fde725"/>
    <path d="M 102.718828 168.600945 
C 104.594097 168.600945 106.392812 167.855892 107.718828 166.529877 
C 109.044843 165.203861 109.789895 163.405146 109.789895 161.529877 
C 109.789895 159.654608 109.044843 157.855892 107.718828 156.529877 
C 106.392812 155.203861 104.594097 154.458809 102.718828 154.458809 
C 100.843558 154.458809 99.044843 155.203861 97.718828 156.529877 
C 96.392812 157.855892 95.64776 159.654608 95.64776 161.529877 
C 95.64776 163.405146 96.392812 165.203861 97.718828 166.529877 
C 99.044843 167.855892 100.843558 168.600945 102.718828 168.600945 
z
" clip-path="url(#pf9a22c5443)" style="fill: #fde725; stroke: #fde725"/>
    <path d="M 84.064244 144.29854 
C 85.939514 144.29854 87.738229 143.553487 89.064244 142.227472 
C 90.39026 140.901456 91.135312 139.102741 91.135312 137.227472 
C 91.135312 135.352203 90.39026 133.553487 89.064244 132.227472 
C 87.738229 130.901456 85.939514 130.156404 84.064244 130.156404 
C 82.188975 130.156404 80.39026 130.901456 79.064244 132.227472 
C 77.738229 133.553487 76.993177 135.352203 76.993177 137.227472 
C 76.993177 139.102741 77.738229 140.901456 79.064244 142.227472 
C 80.39026 143.553487 82.188975 144.29854 84.064244 144.29854 
z
" clip-path="url(#pf9a22c5443)" style="fill: #2c728e; stroke: #2c728e"/>
    <path d="M 131.786409 148.527669 
C 133.661678 148.527669 135.460394 147.782616 136.786409 146.456601 
C 138.112425 145.130585 138.857477 143.33187 138.857477 141.456601 
C 138.857477 139.581332 138.112425 137.782616 136.786409 136.456601 
C 135.460394 135.130585 133.661678 134.385533 131.786409 134.385533 
C 129.91114 134.385533 128.112425 135.130585 126.786409 136.456601 
C 125.460394 137.782616 124.715341 139.581332 124.715341 141.456601 
C 124.715341 143.33187 125.460394 145.130585 126.786409 146.456601 
C 128.112425 147.782616 129.91114 148.527669 131.786409 148.527669 
z
" clip-path="url(#pf9a22c5443)" style="fill: #fde725; stroke: #fde725"/>
    <path d="M 169.568553 158.719417 
C 171.443822 158.719417 173.242538 157.974365 174.568553 156.648349 
C 175.894569 155.322334 176.639621 153.523618 176.639621 151.648349 
C 176.639621 149.77308 175.894569 147.974365 174.568553 146.648349 
C 173.242538 145.322334 171.443822 144.577281 169.568553 144.577281 
C 167.693284 144.577281 165.894569 145.322334 164.568553 146.648349 
C 163.242538 147.974365 162.497485 149.77308 162.497485 151.648349 
C 162.497485 153.523618 163.242538 155.322334 164.568553 156.648349 
C 165.894569 157.974365 167.693284 158.719417 169.568553 158.719417 
z
" clip-path="url(#pf9a22c5443)" style="fill: #fde725; stroke: #fde725"/>
    <path d="M 228.77786 167.548284 
C 230.653129 167.548284 232.451844 166.803232 233.77786 165.477216 
C 235.103875 164.151201 235.848928 162.352485 235.848928 160.477216 
C 235.848928 158.601947 235.103875 156.803232 233.77786 155.477216 
C 232.451844 154.151201 230.653129 153.406148 228.77786 153.406148 
C 226.902591 153.406148 225.103875 154.151201 223.77786 155.477216 
C 222.451844 156.803232 221.706792 158.601947 221.706792 160.477216 
C 221.706792 162.352485 222.451844 164.151201 223.77786 165.477216 
C 225.103875 166.803232 226.902591 167.548284 228.77786 167.548284 
z
" clip-path="url(#pf9a22c5443)" style="fill: #fde725; stroke: #fde725"/>
    <path d="M 271.987254 167.815494 
C 273.862523 167.815494 275.661239 167.070441 276.987254 165.744426 
C 278.31327 164.41841 279.058322 162.619695 279.058322 160.744426 
C 279.058322 158.869157 278.31327 157.070441 276.987254 155.744426 
C 275.661239 154.41841 273.862523 153.673358 271.987254 153.673358 
C 270.111985 153.673358 268.31327 154.41841 266.987254 155.744426 
C 265.661239 157.070441 264.916186 158.869157 264.916186 160.744426 
C 264.916186 162.619695 265.661239 164.41841 266.987254 165.744426 
C 268.31327 167.070441 270.111985 167.815494 271.987254 167.815494 
z
" clip-path="url(#pf9a22c5443)" style="fill: #fde725; stroke: #fde725"/>
    <path d="M 273.363789 179.840872 
C 275.239058 179.840872 277.037774 179.09582 278.363789 177.769805 
C 279.689805 176.443789 280.434857 174.645074 280.434857 172.769805 
C 280.434857 170.894536 279.689805 169.09582 278.363789 167.769805 
C 277.037774 166.443789 275.239058 165.698737 273.363789 165.698737 
C 271.48852 165.698737 269.689805 166.443789 268.363789 167.769805 
C 267.037774 169.09582 266.292721 170.894536 266.292721 172.769805 
C 266.292721 174.645074 267.037774 176.443789 268.363789 177.769805 
C 269.689805 179.09582 271.48852 179.840872 273.363789 179.840872 
z
" clip-path="url(#pf9a22c5443)" style="fill: #fde725; stroke: #fde725"/>
    <path d="M 245.13977 166.38894 
C 247.015039 166.38894 248.813755 165.643888 250.13977 164.317872 
C 251.465786 162.991857 252.210838 161.193141 252.210838 159.317872 
C 252.210838 157.442603 251.465786 155.643888 250.13977 154.317872 
C 248.813755 152.991857 247.015039 152.246805 245.13977 152.246805 
C 243.264501 152.246805 241.465786 152.991857 240.13977 154.317872 
C 238.813755 155.643888 238.068702 157.442603 238.068702 159.317872 
C 238.068702 161.193141 238.813755 162.991857 240.13977 164.317872 
C 241.465786 165.643888 243.264501 166.38894 245.13977 166.38894 
z
" clip-path="url(#pf9a22c5443)" style="fill: #fde725; stroke: #fde725"/>
    <path d="M 273.712965 232.600711 
C 275.588234 232.600711 277.386949 231.855658 278.712965 230.529643 
C 280.03898 229.203627 280.784032 227.404912 280.784032 225.529643 
C 280.784032 223.654374 280.03898 221.855658 278.712965 220.529643 
C 277.386949 219.203627 275.588234 218.458575 273.712965 218.458575 
C 271.837696 218.458575 270.03898 219.203627 268.712965 220.529643 
C 267.386949 221.855658 266.641897 223.654374 266.641897 225.529643 
C 266.641897 227.404912 267.386949 229.203627 268.712965 230.529643 
C 270.03898 231.855658 271.837696 232.600711 273.712965 232.600711 
z
" clip-path="url(#pf9a22c5443)" style="fill: #fde725; stroke: #fde725"/>
    <path d="M 267.41601 274.732574 
C 269.291279 274.732574 271.089994 273.987522 272.41601 272.661506 
C 273.742025 271.335491 274.487078 269.536775 274.487078 267.661506 
C 274.487078 265.786237 273.742025 263.987522 272.41601 262.661506 
C 271.089994 261.335491 269.291279 260.590439 267.41601 260.590439 
C 265.540741 260.590439 263.742025 261.335491 262.41601 262.661506 
C 261.089994 263.987522 260.344942 265.786237 260.344942 267.661506 
C 260.344942 269.536775 261.089994 271.335491 262.41601 272.661506 
C 263.742025 273.987522 265.540741 274.732574 267.41601 274.732574 
z
" clip-path="url(#pf9a22c5443)" style="fill: #2c728e; stroke: #2c728e"/>
    <path d="M 308.926488 135.679081 
C 310.801757 135.679081 312.600473 134.934029 313.926488 133.608013 
C 315.252504 132.281998 315.997556 130.483283 315.997556 128.608013 
C 315.997556 126.732744 315.252504 124.934029 313.926488 123.608013 
C 312.600473 122.281998 310.801757 121.536946 308.926488 121.536946 
C 307.051219 121.536946 305.252504 122.281998 303.926488 123.608013 
C 302.600473 124.934029 301.85542 126.732744 301.85542 128.608013 
C 301.85542 130.483283 302.600473 132.281998 303.926488 133.608013 
C 305.252504 134.934029 307.051219 135.679081 308.926488 135.679081 
z
" clip-path="url(#pf9a22c5443)" style="fill: #fde725; stroke: #fde725"/>
    <path d="M 342.54649 109.601007 
C 344.42176 109.601007 346.220475 108.855955 347.54649 107.529939 
C 348.872506 106.203924 349.617558 104.405208 349.617558 102.529939 
C 349.617558 100.65467 348.872506 98.855955 347.54649 97.529939 
C 346.220475 96.203924 344.42176 95.458872 342.54649 95.458872 
C 340.671221 95.458872 338.872506 96.203924 337.54649 97.529939 
C 336.220475 98.855955 335.475423 100.65467 335.475423 102.529939 
C 335.475423 104.405208 336.220475 106.203924 337.54649 107.529939 
C 338.872506 108.855955 340.671221 109.601007 342.54649 109.601007 
z
" clip-path="url(#pf9a22c5443)" style="fill: #fde725; stroke: #fde725"/>
    <path d="M 333.53213 95.291547 
C 335.407399 95.291547 337.206115 94.546495 338.53213 93.220479 
C 339.858146 91.894464 340.603198 90.095748 340.603198 88.220479 
C 340.603198 86.34521 339.858146 84.546495 338.53213 83.220479 
C 337.206115 81.894464 335.407399 81.149411 333.53213 81.149411 
C 331.656861 81.149411 329.858146 81.894464 328.53213 83.220479 
C 327.206115 84.546495 326.461062 86.34521 326.461062 88.220479 
C 326.461062 90.095748 327.206115 91.894464 328.53213 93.220479 
C 329.858146 94.546495 331.656861 95.291547 333.53213 95.291547 
z
" clip-path="url(#pf9a22c5443)" style="fill: #fde725; stroke: #fde725"/>
    <path d="M 290.235081 144.374144 
C 292.11035 144.374144 293.909065 143.629091 295.235081 142.303076 
C 296.561096 140.97706 297.306149 139.178345 297.306149 137.303076 
C 297.306149 135.427807 296.561096 133.629091 295.235081 132.303076 
C 293.909065 130.97706 292.11035 130.232008 290.235081 130.232008 
C 288.359812 130.232008 286.561096 130.97706 285.235081 132.303076 
C 283.909065 133.629091 283.164013 135.427807 283.164013 137.303076 
C 283.164013 139.178345 283.909065 140.97706 285.235081 142.303076 
C 286.561096 143.629091 288.359812 144.374144 290.235081 144.374144 
z
" clip-path="url(#pf9a22c5443)" style="fill: #fde725; stroke: #fde725"/>
    <path d="M 245.283936 111.003676 
C 247.159205 111.003676 248.957921 110.258624 250.283936 108.932608 
C 251.609952 107.606593 252.355004 105.807877 252.355004 103.932608 
C 252.355004 102.057339 251.609952 100.258624 250.283936 98.932608 
C 248.957921 97.606593 247.159205 96.86154 245.283936 96.86154 
C 243.408667 96.86154 241.609952 97.606593 240.283936 98.932608 
C 238.957921 100.258624 238.212869 102.057339 238.212869 103.932608 
C 238.212869 105.807877 238.957921 107.606593 240.283936 108.932608 
C 241.609952 110.258624 243.408667 111.003676 245.283936 111.003676 
z
" clip-path="url(#pf9a22c5443)" style="fill: #fde725; stroke: #fde725"/>
    <path d="M 317.46807 162.650283 
C 319.34334 162.650283 321.142055 161.90523 322.46807 160.579215 
C 323.794086 159.253199 324.539138 157.454484 324.539138 155.579215 
C 324.539138 153.703946 323.794086 151.90523 322.46807 150.579215 
C 321.142055 149.253199 319.34334 148.508147 317.46807 148.508147 
C 315.592801 148.508147 313.794086 149.253199 312.46807 150.579215 
C 311.142055 151.90523 310.397003 153.703946 310.397003 155.579215 
C 310.397003 157.454484 311.142055 159.253199 312.46807 160.579215 
C 313.794086 161.90523 315.592801 162.650283 317.46807 162.650283 
z
" clip-path="url(#pf9a22c5443)" style="fill: #fde725; stroke: #fde725"/>
    <path d="M 309.384214 184.980522 
C 311.259483 184.980522 313.058199 184.235469 314.384214 182.909454 
C 315.71023 181.583438 316.455282 179.784723 316.455282 177.909454 
C 316.455282 176.034185 315.71023 174.235469 314.384214 172.909454 
C 313.058199 171.583438 311.259483 170.838386 309.384214 170.838386 
C 307.508945 170.838386 305.71023 171.583438 304.384214 172.909454 
C 303.058199 174.235469 302.313146 176.034185 302.313146 177.909454 
C 302.313146 179.784723 303.058199 181.583438 304.384214 182.909454 
C 305.71023 184.235469 307.508945 184.980522 309.384214 184.980522 
z
" clip-path="url(#pf9a22c5443)" style="fill: #fde725; stroke: #fde725"/>
    <path d="M 371.455963 193.703887 
C 373.331232 193.703887 375.129947 192.958835 376.455963 191.63282 
C 377.781978 190.306804 378.52703 188.508089 378.52703 186.63282 
C 378.52703 184.75755 377.781978 182.958835 376.455963 181.63282 
C 375.129947 180.306804 373.331232 179.561752 371.455963 179.561752 
C 369.580694 179.561752 367.781978 180.306804 366.455963 181.63282 
C 365.129947 182.958835 364.384895 184.75755 364.384895 186.63282 
C 364.384895 188.508089 365.129947 190.306804 366.455963 191.63282 
C 367.781978 192.958835 369.580694 193.703887 371.455963 193.703887 
z
" clip-path="url(#pf9a22c5443)" style="fill: #fde725; stroke: #fde725"/>
    <path d="M 381.790281 213.178894 
C 383.66555 213.178894 385.464265 212.433841 386.790281 211.107826 
C 388.116296 209.78181 388.861348 207.983095 388.861348 206.107826 
C 388.861348 204.232557 388.116296 202.433841 386.790281 201.107826 
C 385.464265 199.78181 383.66555 199.036758 381.790281 199.036758 
C 379.915011 199.036758 378.116296 199.78181 376.790281 201.107826 
C 375.464265 202.433841 374.719213 204.232557 374.719213 206.107826 
C 374.719213 207.983095 375.464265 209.78181 376.790281 211.107826 
C 378.116296 212.433841 379.915011 213.178894 381.790281 213.178894 
z
" clip-path="url(#pf9a22c5443)" style="fill: #fde725; stroke: #fde725"/>
    <path d="M 193.416716 70.73215 
C 195.291985 70.73215 197.090701 69.987098 198.416716 68.661082 
C 199.742732 67.335067 200.487784 65.536351 200.487784 63.661082 
C 200.487784 61.785813 199.742732 59.987098 198.416716 58.661082 
C 197.090701 57.335067 195.291985 56.590014 193.416716 56.590014 
C 191.541447 56.590014 189.742732 57.335067 188.416716 58.661082 
C 187.090701 59.987098 186.345648 61.785813 186.345648 63.661082 
C 186.345648 65.536351 187.090701 67.335067 188.416716 68.661082 
C 189.742732 69.987098 191.541447 70.73215 193.416716 70.73215 
z
" clip-path="url(#pf9a22c5443)" style="fill: #48186a; stroke: #48186a"/>
    <path d="M 64.237012 237.63415 
C 66.112281 237.63415 67.910997 236.889097 69.237012 235.563082 
C 70.563028 234.237066 71.30808 232.438351 71.30808 230.563082 
C 71.30808 228.687813 70.563028 226.889097 69.237012 225.563082 
C 67.910997 224.237066 66.112281 223.492014 64.237012 223.492014 
C 62.361743 223.492014 60.563028 224.237066 59.237012 225.563082 
C 57.910997 226.889097 57.165944 228.687813 57.165944 230.563082 
C 57.165944 232.438351 57.910997 234.237066 59.237012 235.563082 
C 60.563028 236.889097 62.361743 237.63415 64.237012 237.63415 
z
" clip-path="url(#pf9a22c5443)" style="fill: #48186a; stroke: #48186a"/>
    <path d="M 83.218352 114.243043 
C 85.093621 114.243043 86.892336 113.497991 88.218352 112.171975 
C 89.544367 110.84596 90.28942 109.047245 90.28942 107.171975 
C 90.28942 105.296706 89.544367 103.497991 88.218352 102.171975 
C 86.892336 100.84596 85.093621 100.100908 83.218352 100.100908 
C 81.343083 100.100908 79.544367 100.84596 78.218352 102.171975 
C 76.892336 103.497991 76.147284 105.296706 76.147284 107.171975 
C 76.147284 109.047245 76.892336 110.84596 78.218352 112.171975 
C 79.544367 113.497991 81.343083 114.243043 83.218352 114.243043 
z
" clip-path="url(#pf9a22c5443)" style="fill: #460a5d; stroke: #460a5d"/>
    <path d="M 289.465848 259.894958 
C 291.341117 259.894958 293.139833 259.149906 294.465848 257.823891 
C 295.791864 256.497875 296.536916 254.69916 296.536916 252.823891 
C 296.536916 250.948622 295.791864 249.149906 294.465848 247.823891 
C 293.139833 246.497875 291.341117 245.752823 289.465848 245.752823 
C 287.590579 245.752823 285.791864 246.497875 284.465848 247.823891 
C 283.139833 249.149906 282.39478 250.948622 282.39478 252.823891 
C 282.39478 254.69916 283.139833 256.497875 284.465848 257.823891 
C 285.791864 259.149906 287.590579 259.894958 289.465848 259.894958 
z
" clip-path="url(#pf9a22c5443)" style="fill: #460a5d; stroke: #460a5d"/>
    <path d="M 268.309539 309.96646 
C 270.184808 309.96646 271.983523 309.221408 273.309539 307.895392 
C 274.635554 306.569377 275.380606 304.770661 275.380606 302.895392 
C 275.380606 301.020123 274.635554 299.221408 273.309539 297.895392 
C 271.983523 296.569377 270.184808 295.824324 268.309539 295.824324 
C 266.434269 295.824324 264.635554 296.569377 263.309539 297.895392 
C 261.983523 299.221408 261.238471 301.020123 261.238471 302.895392 
C 261.238471 304.770661 261.983523 306.569377 263.309539 307.895392 
C 264.635554 309.221408 266.434269 309.96646 268.309539 309.96646 
z
" clip-path="url(#pf9a22c5443)" style="fill: #450457; stroke: #450457"/>
    <path d="M 371.674722 94.740547 
C 373.549991 94.740547 375.348707 93.995495 376.674722 92.669479 
C 378.000738 91.343464 378.74579 89.544748 378.74579 87.669479 
C 378.74579 85.79421 378.000738 83.995495 376.674722 82.669479 
C 375.348707 81.343464 373.549991 80.598412 371.674722 80.598412 
C 369.799453 80.598412 368.000738 81.343464 366.674722 82.669479 
C 365.348707 83.995495 364.603654 85.79421 364.603654 87.669479 
C 364.603654 89.544748 365.348707 91.343464 366.674722 92.669479 
C 368.000738 93.995495 369.799453 94.740547 371.674722 94.740547 
z
" clip-path="url(#pf9a22c5443)" style="fill: #450457; stroke: #450457"/>
    <path d="M 359.393062 56.875551 
C 361.268331 56.875551 363.067047 56.130498 364.393062 54.804483 
C 365.719078 53.478467 366.46413 51.679752 366.46413 49.804483 
C 366.46413 47.929214 365.719078 46.130498 364.393062 44.804483 
C 363.067047 43.478467 361.268331 42.733415 359.393062 42.733415 
C 357.517793 42.733415 355.719078 43.478467 354.393062 44.804483 
C 353.067047 46.130498 352.321995 47.929214 352.321995 49.804483 
C 352.321995 51.679752 353.067047 53.478467 354.393062 54.804483 
C 355.719078 56.130498 357.517793 56.875551 359.393062 56.875551 
z
" clip-path="url(#pf9a22c5443)" style="fill: #440154; stroke: #440154"/>
    <path d="M 249.870977 69.33263 
C 251.746247 69.33263 253.544962 68.587578 254.870977 67.261563 
C 256.196993 65.935547 256.942045 64.136832 256.942045 62.261563 
C 256.942045 60.386294 256.196993 58.587578 254.870977 57.261563 
C 253.544962 55.935547 251.746247 55.190495 249.870977 55.190495 
C 247.995708 55.190495 246.196993 55.935547 244.870977 57.261563 
C 243.544962 58.587578 242.79991 60.386294 242.79991 62.261563 
C 242.79991 64.136832 243.544962 65.935547 244.870977 67.261563 
C 246.196993 68.587578 247.995708 69.33263 249.870977 69.33263 
z
" clip-path="url(#pf9a22c5443)" style="fill: #440154; stroke: #440154"/>
    <path d="M 406.315041 235.860529 
C 408.19031 235.860529 409.989026 235.115476 411.315041 233.789461 
C 412.641057 232.463445 413.386109 230.66473 413.386109 228.789461 
C 413.386109 226.914192 412.641057 225.115476 411.315041 223.789461 
C 409.989026 222.463445 408.19031 221.718393 406.315041 221.718393 
C 404.439772 221.718393 402.641057 222.463445 401.315041 223.789461 
C 399.989026 225.115476 399.243974 226.914192 399.243974 228.789461 
C 399.243974 230.66473 399.989026 232.463445 401.315041 233.789461 
C 402.641057 235.115476 404.439772 235.860529 406.315041 235.860529 
z
" clip-path="url(#pf9a22c5443)" style="fill: #48186a; stroke: #48186a"/>
    <path d="M 63.584485 128.553722 
C 65.459754 128.553722 67.258469 127.80867 68.584485 126.482655 
C 69.9105 125.156639 70.655553 123.357924 70.655553 121.482655 
C 70.655553 119.607385 69.9105 117.80867 68.584485 116.482655 
C 67.258469 115.156639 65.459754 114.411587 63.584485 114.411587 
C 61.709216 114.411587 59.9105 115.156639 58.584485 116.482655 
C 57.258469 117.80867 56.513417 119.607385 56.513417 121.482655 
C 56.513417 123.357924 57.258469 125.156639 58.584485 126.482655 
C 59.9105 127.80867 61.709216 128.553722 63.584485 128.553722 
z
" clip-path="url(#pf9a22c5443)" style="fill: #fde725; stroke: #fde725"/>
   </g>
   <g id="text_1">
    <!-- Grid Topology (node attribute: Vn) -->
    <g transform="translate(113.004375 17.229937) scale(0.132 -0.132)">
     <defs>
      <path id="DejaVuSans-47" d="M 3809 666 
L 3809 1919 
L 2778 1919 
L 2778 2438 
L 4434 2438 
L 4434 434 
Q 4069 175 3628 42 
Q 3188 -91 2688 -91 
Q 1594 -91 976 548 
Q 359 1188 359 2328 
Q 359 3472 976 4111 
Q 1594 4750 2688 4750 
Q 3144 4750 3555 4637 
Q 3966 4525 4313 4306 
L 4313 3634 
Q 3963 3931 3569 4081 
Q 3175 4231 2741 4231 
Q 1884 4231 1454 3753 
Q 1025 3275 1025 2328 
Q 1025 1384 1454 906 
Q 1884 428 2741 428 
Q 3075 428 3337 486 
Q 3600 544 3809 666 
z
" transform="scale(0.015625)"/>
      <path id="DejaVuSans-72" d="M 2631 2963 
Q 2534 3019 2420 3045 
Q 2306 3072 2169 3072 
Q 1681 3072 1420 2755 
Q 1159 2438 1159 1844 
L 1159 0 
L 581 0 
L 581 3500 
L 1159 3500 
L 1159 2956 
Q 1341 3275 1631 3429 
Q 1922 3584 2338 3584 
Q 2397 3584 2469 3576 
Q 2541 3569 2628 3553 
L 2631 2963 
z
" transform="scale(0.015625)"/>
      <path id="DejaVuSans-69" d="M 603 3500 
L 1178 3500 
L 1178 0 
L 603 0 
L 603 3500 
z
M 603 4863 
L 1178 4863 
L 1178 4134 
L 603 4134 
L 603 4863 
z
" transform="scale(0.015625)"/>
      <path id="DejaVuSans-64" d="M 2906 2969 
L 2906 4863 
L 3481 4863 
L 3481 0 
L 2906 0 
L 2906 525 
Q 2725 213 2448 61 
Q 2172 -91 1784 -91 
Q 1150 -91 751 415 
Q 353 922 353 1747 
Q 353 2572 751 3078 
Q 1150 3584 1784 3584 
Q 2172 3584 2448 3432 
Q 2725 3281 2906 2969 
z
M 947 1747 
Q 947 1113 1208 752 
Q 1469 391 1925 391 
Q 2381 391 2643 752 
Q 2906 1113 2906 1747 
Q 2906 2381 2643 2742 
Q 2381 3103 1925 3103 
Q 1469 3103 1208 2742 
Q 947 2381 947 1747 
z
" transform="scale(0.015625)"/>
      <path id="DejaVuSans-20" transform="scale(0.015625)"/>
      <path id="DejaVuSans-54" d="M -19 4666 
L 3928 4666 
L 3928 4134 
L 2272 4134 
L 2272 0 
L 1638 0 
L 1638 4134 
L -19 4134 
L -19 4666 
z
" transform="scale(0.015625)"/>
      <path id="DejaVuSans-6f" d="M 1959 3097 
Q 1497 3097 1228 2736 
Q 959 2375 959 1747 
Q 959 1119 1226 758 
Q 1494 397 1959 397 
Q 2419 397 2687 759 
Q 2956 1122 2956 1747 
Q 2956 2369 2687 2733 
Q 2419 3097 1959 3097 
z
M 1959 3584 
Q 2709 3584 3137 3096 
Q 3566 2609 3566 1747 
Q 3566 888 3137 398 
Q 2709 -91 1959 -91 
Q 1206 -91 779 398 
Q 353 888 353 1747 
Q 353 2609 779 3096 
Q 1206 3584 1959 3584 
z
" transform="scale(0.015625)"/>
      <path id="DejaVuSans-70" d="M 1159 525 
L 1159 -1331 
L 581 -1331 
L 581 3500 
L 1159 3500 
L 1159 2969 
Q 1341 3281 1617 3432 
Q 1894 3584 2278 3584 
Q 2916 3584 3314 3078 
Q 3713 2572 3713 1747 
Q 3713 922 3314 415 
Q 2916 -91 2278 -91 
Q 1894 -91 1617 61 
Q 1341 213 1159 525 
z
M 3116 1747 
Q 3116 2381 2855 2742 
Q 2594 3103 2138 3103 
Q 1681 3103 1420 2742 
Q 1159 2381 1159 1747 
Q 1159 1113 1420 752 
Q 1681 391 2138 391 
Q 2594 391 2855 752 
Q 3116 1113 3116 1747 
z
" transform="scale(0.015625)"/>
      <path id="DejaVuSans-6c" d="M 603 4863 
L 1178 4863 
L 1178 0 
L 603 0 
L 603 4863 
z
" transform="scale(0.015625)"/>
      <path id="DejaVuSans-67" d="M 2906 1791 
Q 2906 2416 2648 2759 
Q 2391 3103 1925 3103 
Q 1463 3103 1205 2759 
Q 947 2416 947 1791 
Q 947 1169 1205 825 
Q 1463 481 1925 481 
Q 2391 481 2648 825 
Q 2906 1169 2906 1791 
z
M 3481 434 
Q 3481 -459 3084 -895 
Q 2688 -1331 1869 -1331 
Q 1566 -1331 1297 -1286 
Q 1028 -1241 775 -1147 
L 775 -588 
Q 1028 -725 1275 -790 
Q 1522 -856 1778 -856 
Q 2344 -856 2625 -561 
Q 2906 -266 2906 331 
L 2906 616 
Q 2728 306 2450 153 
Q 2172 0 1784 0 
Q 1141 0 747 490 
Q 353 981 353 1791 
Q 353 2603 747 3093 
Q 1141 3584 1784 3584 
Q 2172 3584 2450 3431 
Q 2728 3278 2906 2969 
L 2906 3500 
L 3481 3500 
L 3481 434 
z
" transform="scale(0.015625)"/>
      <path id="DejaVuSans-79" d="M 2059 -325 
Q 1816 -950 1584 -1140 
Q 1353 -1331 966 -1331 
L 506 -1331 
L 506 -850 
L 844 -850 
Q 1081 -850 1212 -737 
Q 1344 -625 1503 -206 
L 1606 56 
L 191 3500 
L 800 3500 
L 1894 763 
L 2988 3500 
L 3597 3500 
L 2059 -325 
z
" transform="scale(0.015625)"/>
      <path id="DejaVuSans-28" d="M 1984 4856 
Q 1566 4138 1362 3434 
Q 1159 2731 1159 2009 
Q 1159 1288 1364 580 
Q 1569 -128 1984 -844 
L 1484 -844 
Q 1016 -109 783 600 
Q 550 1309 550 2009 
Q 550 2706 781 3412 
Q 1013 4119 1484 4856 
L 1984 4856 
z
" transform="scale(0.015625)"/>
      <path id="DejaVuSans-6e" d="M 3513 2113 
L 3513 0 
L 2938 0 
L 2938 2094 
Q 2938 2591 2744 2837 
Q 2550 3084 2163 3084 
Q 1697 3084 1428 2787 
Q 1159 2491 1159 1978 
L 1159 0 
L 581 0 
L 581 3500 
L 1159 3500 
L 1159 2956 
Q 1366 3272 1645 3428 
Q 1925 3584 2291 3584 
Q 2894 3584 3203 3211 
Q 3513 2838 3513 2113 
z
" transform="scale(0.015625)"/>
      <path id="DejaVuSans-65" d="M 3597 1894 
L 3597 1613 
L 953 1613 
Q 991 1019 1311 708 
Q 1631 397 2203 397 
Q 2534 397 2845 478 
Q 3156 559 3463 722 
L 3463 178 
Q 3153 47 2828 -22 
Q 2503 -91 2169 -91 
Q 1331 -91 842 396 
Q 353 884 353 1716 
Q 353 2575 817 3079 
Q 1281 3584 2069 3584 
Q 2775 3584 3186 3129 
Q 3597 2675 3597 1894 
z
M 3022 2063 
Q 3016 2534 2758 2815 
Q 2500 3097 2075 3097 
Q 1594 3097 1305 2825 
Q 1016 2553 972 2059 
L 3022 2063 
z
" transform="scale(0.015625)"/>
      <path id="DejaVuSans-61" d="M 2194 1759 
Q 1497 1759 1228 1600 
Q 959 1441 959 1056 
Q 959 750 1161 570 
Q 1363 391 1709 391 
Q 2188 391 2477 730 
Q 2766 1069 2766 1631 
L 2766 1759 
L 2194 1759 
z
M 3341 1997 
L 3341 0 
L 2766 0 
L 2766 531 
Q 2569 213 2275 61 
Q 1981 -91 1556 -91 
Q 1019 -91 701 211 
Q 384 513 384 1019 
Q 384 1609 779 1909 
Q 1175 2209 1959 2209 
L 2766 2209 
L 2766 2266 
Q 2766 2663 2505 2880 
Q 2244 3097 1772 3097 
Q 1472 3097 1187 3025 
Q 903 2953 641 2809 
L 641 3341 
Q 956 3463 1253 3523 
Q 1550 3584 1831 3584 
Q 2591 3584 2966 3190 
Q 3341 2797 3341 1997 
z
" transform="scale(0.015625)"/>
      <path id="DejaVuSans-74" d="M 1172 4494 
L 1172 3500 
L 2356 3500 
L 2356 3053 
L 1172 3053 
L 1172 1153 
Q 1172 725 1289 603 
Q 1406 481 1766 481 
L 2356 481 
L 2356 0 
L 1766 0 
Q 1100 0 847 248 
Q 594 497 594 1153 
L 594 3053 
L 172 3053 
L 172 3500 
L 594 3500 
L 594 4494 
L 1172 4494 
z
" transform="scale(0.015625)"/>
      <path id="DejaVuSans-62" d="M 3116 1747 
Q 3116 2381 2855 2742 
Q 2594 3103 2138 3103 
Q 1681 3103 1420 2742 
Q 1159 2381 1159 1747 
Q 1159 1113 1420 752 
Q 1681 391 2138 391 
Q 2594 391 2855 752 
Q 3116 1113 3116 1747 
z
M 1159 2969 
Q 1341 3281 1617 3432 
Q 1894 3584 2278 3584 
Q 2916 3584 3314 3078 
Q 3713 2572 3713 1747 
Q 3713 922 3314 415 
Q 2916 -91 2278 -91 
Q 1894 -91 1617 61 
Q 1341 213 1159 525 
L 1159 0 
L 581 0 
L 581 4863 
L 1159 4863 
L 1159 2969 
z
" transform="scale(0.015625)"/>
      <path id="DejaVuSans-75" d="M 544 1381 
L 544 3500 
L 1119 3500 
L 1119 1403 
Q 1119 906 1312 657 
Q 1506 409 1894 409 
Q 2359 409 2629 706 
Q 2900 1003 2900 1516 
L 2900 3500 
L 3475 3500 
L 3475 0 
L 2900 0 
L 2900 538 
Q 2691 219 2414 64 
Q 2138 -91 1772 -91 
Q 1169 -91 856 284 
Q 544 659 544 1381 
z
M 1991 3584 
L 1991 3584 
z
" transform="scale(0.015625)"/>
      <path id="DejaVuSans-3a" d="M 750 794 
L 1409 794 
L 1409 0 
L 750 0 
L 750 794 
z
M 750 3309 
L 1409 3309 
L 1409 2516 
L 750 2516 
L 750 3309 
z
" transform="scale(0.015625)"/>
      <path id="DejaVuSans-56" d="M 1831 0 
L 50 4666 
L 709 4666 
L 2188 738 
L 3669 4666 
L 4325 4666 
L 2547 0 
L 1831 0 
z
" transform="scale(0.015625)"/>
      <path id="DejaVuSans-29" d="M 513 4856 
L 1013 4856 
Q 1481 4119 1714 3412 
Q 1947 2706 1947 2009 
Q 1947 1309 1714 600 
Q 1481 -109 1013 -844 
L 513 -844 
Q 928 -128 1133 580 
Q 1338 1288 1338 2009 
Q 1338 2731 1133 3434 
Q 928 4138 513 4856 
z
" transform="scale(0.015625)"/>
     </defs>
     <use xlink:href="#DejaVuSans-47"/>
     <use xlink:href="#DejaVuSans-72" transform="translate(77.490234 0)"/>
     <use xlink:href="#DejaVuSans-69" transform="translate(118.603516 0)"/>
     <use xlink:href="#DejaVuSans-64" transform="translate(146.386719 0)"/>
     <use xlink:href="#DejaVuSans-20" transform="translate(209.863281 0)"/>
     <use xlink:href="#DejaVuSans-54" transform="translate(241.650391 0)"/>
     <use xlink:href="#DejaVuSans-6f" transform="translate(285.734375 0)"/>
     <use xlink:href="#DejaVuSans-70" transform="translate(346.916016 0)"/>
     <use xlink:href="#DejaVuSans-6f" transform="translate(410.392578 0)"/>
     <use xlink:href="#DejaVuSans-6c" transform="translate(471.574219 0)"/>
     <use xlink:href="#DejaVuSans-6f" transform="translate(499.357422 0)"/>
     <use xlink:href="#DejaVuSans-67" transform="translate(560.539062 0)"/>
     <use xlink:href="#DejaVuSans-79" transform="translate(624.015625 0)"/>
     <use xlink:href="#DejaVuSans-20" transform="translate(683.195312 0)"/>
     <use xlink:href="#DejaVuSans-28" transform="translate(714.982422 0)"/>
     <use xlink:href="#DejaVuSans-6e" transform="translate(753.996094 0)"/>
     <use xlink:href="#DejaVuSans-6f" transform="translate(817.375 0)"/>
     <use xlink:href="#DejaVuSans-64" transform="translate(878.556641 0)"/>
     <use xlink:href="#DejaVuSans-65" transform="translate(942.033203 0)"/>
     <use xlink:href="#DejaVuSans-20" transform="translate(1003.556641 0)"/>
     <use xlink:href="#DejaVuSans-61" transform="translate(1035.34375 0)"/>
     <use xlink:href="#DejaVuSans-74" transform="translate(1096.623047 0)"/>
     <use xlink:href="#DejaVuSans-74" transform="translate(1135.832031 0)"/>
     <use xlink:href="#DejaVuSans-72" transform="translate(1175.041016 0)"/>
     <use xlink:href="#DejaVuSans-69" transform="translate(1216.154297 0)"/>
     <use xlink:href="#DejaVuSans-62" transform="translate(1243.9375 0)"/>
     <use xlink:href="#DejaVuSans-75" transform="translate(1307.414062 0)"/>
     <use xlink:href="#DejaVuSans-74" transform="translate(1370.792969 0)"/>
     <use xlink:href="#DejaVuSans-65" transform="translate(1410.001953 0)"/>
     <use xlink:href="#DejaVuSans-3a" transform="translate(1471.525391 0)"/>
     <use xlink:href="#DejaVuSans-20" transform="translate(1505.216797 0)"/>
     <use xlink:href="#DejaVuSans-56" transform="translate(1537.003906 0)"/>
     <use xlink:href="#DejaVuSans-6e" transform="translate(1605.412109 0)"/>
     <use xlink:href="#DejaVuSans-29" transform="translate(1668.791016 0)"/>
    </g>
   </g>
  </g>
 </g>
 <defs>
  <clipPath id="pf9a22c5443">
   <rect x="7.2" y="23.229937" width="437.04" height="306.24"/>
  </clipPath>
 </defs>
</svg>
